<?xml version="1.0" encoding="UTF-8" standalone="no"?>
<!DOCTYPE svg PUBLIC "-//W3C//DTD SVG 1.1//EN" "http://www.w3.org/Graphics/SVG/1.1/DTD/svg11.dtd">
<svg width="100%" height="100%" viewBox="0 0 200 200" version="1.1" xmlns="http://www.w3.org/2000/svg" xmlns:xlink="http://www.w3.org/1999/xlink" xml:space="preserve" xmlns:serif="http://www.serif.com/" style="fill-rule:evenodd;clip-rule:evenodd;stroke-linejoin:round;stroke-miterlimit:2;">
    <rect id="Tavola-da-disegno1" serif:id="Tavola da disegno1" x="0" y="0" width="200" height="200" style="fill:none;"/>
    <clipPath id="_clip1">
        <rect id="Tavola-da-disegno11" serif:id="Tavola da disegno1" x="0" y="0" width="200" height="200"/>
    </clipPath>
    <g clip-path="url(#_clip1)">
        <g transform="matrix(9.77351,0,0,9.77351,-12.3954,1.30842e-14)">
            <g transform="matrix(1.26707,0,0,1.26707,-1.46962,-2.41801)">
                <circle cx="10.236" cy="9.983" r="8.075" style="fill:white;"/>
            </g>
            <g id="logo" transform="matrix(0.0617585,0,0,0.0617585,5.44423,4.41937)">
                <path id="Shape" d="M76.326,64.249C81.154,60.164 85.611,56.079 90.439,52.365C86.725,49.765 83.383,47.537 80.04,45.309C75.955,48.651 71.87,52.365 67.784,56.079C71.87,57.565 74.841,60.536 76.326,64.249Z" style="fill:rgb(41,171,226);fill-rule:nonzero;"/>
                <g id="Oval" transform="matrix(0.999997,0.00263736,-0.00263736,0.999997,0.178488,-0.169721)">
                    <ellipse cx="64.442" cy="67.592" rx="15.97" ry="15.227" style="fill:rgb(41,171,226);"/>
                </g>
                <path id="Shape1" serif:id="Shape" d="M78.926,153.01C57.014,164.895 38.074,167.866 29.532,159.695C17.648,148.182 28.418,118.1 54.415,87.647C50.329,86.532 46.987,83.561 45.13,79.848C7.249,122.185 -9.835,164.895 6.877,180.864C20.619,194.234 53.672,185.321 90.068,161.552C86.354,158.952 82.64,155.981 78.926,153.01Z" style="fill:rgb(41,171,226);fill-rule:nonzero;"/>
                <path id="Shape2" serif:id="Shape" d="M104.923,51.622C106.037,47.537 109.008,44.195 112.722,42.338C68.899,6.314 24.333,-9.656 7.62,6.314C-6.121,19.683 2.792,51.251 27.675,86.161C30.646,82.447 33.617,79.105 36.588,75.391C24.333,54.222 20.99,36.024 29.532,27.482C41.788,15.97 72.984,26.74 104.923,51.622Z" style="fill:rgb(41,171,226);fill-rule:nonzero;"/>
                <path id="Shape3" serif:id="Shape" d="M134.634,62.021C133.148,65.735 129.806,68.706 126.092,70.192C131.663,75.762 136.862,80.962 141.319,86.532C143.918,83.19 146.518,79.848 148.375,76.505C144.29,71.677 139.462,66.849 134.634,62.021Z" style="fill:rgb(41,171,226);fill-rule:nonzero;"/>
                <path id="Shape4" serif:id="Shape" d="M125.72,76.877C134.634,76.877 141.69,70.192 141.69,61.65C141.69,53.108 134.634,46.423 125.72,46.423C116.807,46.423 109.751,53.108 109.751,61.65C109.751,69.82 116.807,76.877 125.72,76.877Z" style="fill:rgb(41,171,226);fill-rule:nonzero;"/>
                <path id="Shape5" serif:id="Shape" d="M166.944,27.854C178.828,39.367 168.058,69.449 142.061,99.902C146.147,101.016 149.489,103.988 151.346,107.701C188.856,65.364 205.939,22.283 189.227,6.314C175.486,-6.685 142.433,2.228 106.408,25.997C110.122,28.597 113.836,31.568 117.55,34.539C139.462,22.654 158.402,19.683 166.944,27.854Z" style="fill:rgb(41,171,226);fill-rule:nonzero;"/>
                <path id="Shape6" serif:id="Shape" d="M122.749,120.7C117.179,125.899 111.236,130.727 105.666,135.184C109.379,137.783 112.722,140.012 116.436,142.24C121.635,138.155 126.463,133.698 131.663,128.87C127.577,127.385 124.606,124.414 122.749,120.7Z" style="fill:rgb(41,171,226);fill-rule:nonzero;"/>
                <g id="Oval1" serif:id="Oval" transform="matrix(-0.999996,-0.00275458,0.00275458,-0.999996,263.362,240.664)">
                    <ellipse cx="131.847" cy="120.151" rx="15.97" ry="15.227" style="fill:rgb(41,171,226);"/>
                </g>
                <path id="Shape7" serif:id="Shape" d="M70.384,117.729C64.813,112.158 59.614,106.959 55.157,101.388C52.558,104.73 49.958,108.073 48.101,111.415C52.558,116.243 57.014,121.071 61.842,125.899C63.328,122.185 66.299,119.214 70.384,117.729Z" style="fill:rgb(41,171,226);fill-rule:nonzero;"/>
                <path id="Shape8" serif:id="Shape" d="M168.801,101.759C165.83,105.473 162.859,108.816 159.888,112.529C172.143,133.698 175.486,151.525 166.573,160.067C154.317,171.579 123.121,160.809 91.182,136.298C90.068,140.383 87.096,143.726 83.383,145.583C127.577,181.607 172.143,197.948 188.856,181.978C202.597,168.237 193.684,136.298 168.801,101.759Z" style="fill:rgb(41,171,226);fill-rule:nonzero;"/>
                <g id="Oval2" serif:id="Oval" transform="matrix(0.00262279,-0.999997,0.999997,0.00262279,-55.4178,196.551)">
                    <ellipse cx="70.825" cy="126.057" rx="15.227" ry="15.97" style="fill:rgb(41,171,226);"/>
                </g>
            </g>
        </g>
    </g>
</svg>
