<?xml version="1.0" encoding="UTF-8" standalone="no"?>
<!DOCTYPE svg PUBLIC "-//W3C//DTD SVG 1.1//EN" "http://www.w3.org/Graphics/SVG/1.1/DTD/svg11.dtd">
<svg width="100%" height="100%" viewBox="0 0 200 200" version="1.1" xmlns="http://www.w3.org/2000/svg" xmlns:xlink="http://www.w3.org/1999/xlink" xml:space="preserve" xmlns:serif="http://www.serif.com/" style="fill-rule:evenodd;clip-rule:evenodd;stroke-linejoin:round;stroke-miterlimit:2;">
    <rect id="Tavola-da-disegno1" serif:id="Tavola da disegno1" x="0" y="0" width="200" height="200" style="fill:none;"/>
    <g id="Tavola-da-disegno11" serif:id="Tavola da disegno1">
        <g transform="matrix(0.390625,0,0,0.390625,7.10543e-14,0)">
            <path d="M330,150C310.701,150 295,134.299 295,115L295,0L116,0C85.673,0 61,24.673 61,55L61,457C61,487.327 85.673,512 116,512L396,512C426.327,512 451,487.327 451,457L451,150L330,150ZM143,360L215.72,360C224.004,360 230.72,366.716 230.72,375C230.72,383.284 224.004,390 215.72,390L143,390C134.716,390 128,383.284 128,375C128,366.716 134.716,360 143,360ZM128,295C128,286.716 134.716,280 143,280L363,280C371.284,280 378,286.716 378,295C378,303.284 371.284,310 363,310L143,310C134.716,310 128,303.284 128,295ZM363,200C371.284,200 378,206.716 378,215C378,223.284 371.284,230 363,230L143,230C134.716,230 128,223.284 128,215C128,206.716 134.716,200 143,200L363,200Z" style="fill-rule:nonzero;"/>
            <path d="M325,115C325,117.757 327.243,120 330,120L444.314,120C441.57,114.934 438.04,110.281 433.799,106.268L337.376,15.046C333.634,11.506 329.466,8.553 325.001,6.221L325.001,115L325,115Z" style="fill-rule:nonzero;"/>
        </g>
    </g>
</svg>
