<?xml version="1.0" encoding="UTF-8" standalone="no"?>
<!DOCTYPE svg PUBLIC "-//W3C//DTD SVG 1.1//EN" "http://www.w3.org/Graphics/SVG/1.1/DTD/svg11.dtd">
<svg width="100%" height="100%" viewBox="0 0 200 200" version="1.1" xmlns="http://www.w3.org/2000/svg" xmlns:xlink="http://www.w3.org/1999/xlink" xml:space="preserve" xmlns:serif="http://www.serif.com/" style="fill-rule:evenodd;clip-rule:evenodd;stroke-linejoin:round;stroke-miterlimit:2;">
    <rect id="Tavola-da-disegno1" serif:id="Tavola da disegno1" x="0" y="0" width="200" height="200" style="fill:none;"/>
    <g id="Tavola-da-disegno11" serif:id="Tavola da disegno1">
        <g transform="matrix(7.37326,0,0,7.37326,-5.80983,2.71535)">
            <circle cx="8.528" cy="9.133" r="3.939" style="fill:rgb(21,156,244);"/>
            <circle cx="7.704" cy="14.947" r="3.521" style="fill:white;"/>
            <circle cx="16.613" cy="12.38" r="6.281" style="fill:white;"/>
            <rect x="7.704" y="14.969" width="9.574" height="3.5" style="fill:white;"/>
            <circle cx="10.101" cy="12.009" r="1.158" style="fill:white;"/>
            <path d="M11.767,19.877L17.884,19.877L24.039,13.03C24.039,13.03 24.201,10.034 22.348,7.832C20.664,5.83 17.893,9.272 17.893,9.272L16.231,13.655L10.918,17.419L11.767,19.877Z" style="fill:white;"/>
            <path d="M21.485,9.203C20.426,7.605 18.611,6.553 16.551,6.553C13.54,6.553 11.276,8.829 10.973,10.77C10.905,11.207 10.736,11.494 10.447,11.801C10.209,11.956 10.027,11.993 9.812,11.956C9.666,11.932 9.542,11.88 9.404,11.822C9.134,11.708 8.81,11.572 8.156,11.572C6.324,11.572 4.839,13.057 4.839,14.889C4.839,16.721 6.324,18.206 8.156,18.206L12.122,18.206C12.143,18.779 12.218,19.338 12.344,19.877L8.156,19.877C5.405,19.877 3.175,17.647 3.175,14.895C3.175,12.144 5.405,9.914 8.156,9.914C8.563,9.914 8.959,9.963 9.337,10.055C10.337,7.08 13.149,4.937 16.46,4.937C19.587,4.937 22.267,6.846 23.399,9.563C22.787,9.374 22.146,9.252 21.485,9.203Z" style="fill:url(#_Linear1);"/>
            <circle cx="9.634" cy="2.497" r="1.106" style="fill:rgb(21,155,243);"/>
            <circle cx="1.894" cy="9.132" r="1.106" style="fill:rgb(21,155,243);"/>
            <circle cx="4.106" cy="3.605" r="1.106" style="fill:rgb(21,155,243);"/>
            <path d="M26.413,17.997L22.913,17.997L22.913,18.997L25.313,18.997C24.963,20.497 23.863,21.747 22.413,22.247L16.663,16.497C17.263,14.747 18.963,13.497 20.913,13.497C22.413,13.497 23.763,14.247 24.613,15.397L25.363,14.747C24.363,13.397 22.763,12.497 20.913,12.497C18.313,12.497 16.113,14.347 15.563,16.797L22.163,23.397C24.563,22.797 26.413,20.597 26.413,17.997Z" style="fill:white;fill-rule:nonzero;"/>
            <path d="M15.413,18.047C15.413,19.447 15.963,20.797 17.013,21.847C18.063,22.897 19.463,23.447 20.813,23.447L15.413,18.047Z" style="fill:white;fill-rule:nonzero;"/>
            <path d="M20.913,10.997C17.063,10.997 13.913,14.147 13.913,17.997C13.913,21.847 17.063,24.997 20.913,24.997C24.763,24.997 27.913,21.847 27.913,17.997C27.913,14.147 24.763,10.997 20.913,10.997ZM17.013,21.897C15.963,20.847 15.413,19.447 15.413,18.097L20.863,23.497C19.463,23.447 18.063,22.947 17.013,21.897ZM22.113,23.347L15.563,16.797C16.113,14.347 18.313,12.497 20.913,12.497C22.763,12.497 24.363,13.397 25.363,14.747L24.613,15.397C23.763,14.247 22.413,13.497 20.913,13.497C18.963,13.497 17.313,14.747 16.663,16.497L22.413,22.247C23.863,21.747 24.963,20.497 25.313,18.997L22.913,18.997L22.913,17.997L26.413,17.997C26.413,20.597 24.563,22.797 22.113,23.347Z" style="fill:rgb(102,51,153);fill-rule:nonzero;"/>
        </g>
    </g>
    <defs>
        <linearGradient id="_Linear1" x1="0" y1="0" x2="1" y2="0" gradientUnits="userSpaceOnUse" gradientTransform="matrix(-11.7958,1.44457e-15,-1.44457e-15,-11.7958,23.2288,8.96956)"><stop offset="0" style="stop-color:rgb(102,51,153);stop-opacity:1"/><stop offset="1" style="stop-color:rgb(21,155,243);stop-opacity:1"/></linearGradient>
    </defs>
</svg>
