<?xml version="1.0" encoding="UTF-8" standalone="no"?>
<!DOCTYPE svg PUBLIC "-//W3C//DTD SVG 1.1//EN" "http://www.w3.org/Graphics/SVG/1.1/DTD/svg11.dtd">
<svg width="100%" height="100%" viewBox="0 0 200 200" version="1.1" xmlns="http://www.w3.org/2000/svg" xmlns:xlink="http://www.w3.org/1999/xlink" xml:space="preserve" xmlns:serif="http://www.serif.com/" style="fill-rule:evenodd;clip-rule:evenodd;stroke-linejoin:round;stroke-miterlimit:2;">
    <rect id="Tavola-da-disegno1" serif:id="Tavola da disegno1" x="0" y="0" width="200" height="200" style="fill:none;"/>
    <g id="Tavola-da-disegno11" serif:id="Tavola da disegno1">
        <g transform="matrix(0.407997,0,0,0.407997,2.84217e-14,0)">
            <path d="M420.95,61.8C376.25,20.6 320.65,0 254.25,0C184.45,0 124.95,23.4 75.85,70.3C26.75,117.2 2.15,175.5 2.15,245.3C2.15,312.2 25.55,369.7 72.25,417.9C119.15,466.1 182.15,490.2 261.45,490.2C309.25,490.2 356.15,480.4 402.15,460.7C417.15,454.3 424.45,437.1 418.35,422C412.05,406.4 394.25,399.2 378.75,405.8C338.75,423 299.55,431.6 261.35,431.6C200.55,431.6 153.45,413.1 120.05,376C86.75,339 70.05,295.5 70.05,245.6C70.05,191.4 87.95,146.2 123.65,109.9C159.25,73.7 203.15,55.5 255.15,55.5C303.05,55.5 343.55,70.4 376.55,100.2C409.55,130 426.05,167.5 426.05,212.7C426.05,243.6 418.45,269.4 403.35,289.9C388.25,310.5 372.55,320.7 356.25,320.7C347.45,320.7 343.05,316 343.05,306.5C343.05,298.8 343.65,289.8 344.75,279.4L363.35,127.3L299.35,127.3L295.25,142.2C278.95,128.9 261.05,122.2 241.65,122.2C210.85,122.2 184.45,134.5 162.55,159C140.55,183.5 129.65,215.1 129.65,253.7C129.65,291.4 139.35,321.9 158.85,345C178.35,368.2 201.75,379.7 229.15,379.7C253.65,379.7 274.55,369.4 291.95,348.9C305.05,368.6 324.35,378.4 349.85,378.4C387.35,378.4 419.75,362.1 447.05,329.4C474.35,296.8 488.05,257.4 488.05,211.3C488.05,152.9 465.75,103 420.95,61.8ZM273.55,291.9C262.25,307.1 248.75,314.8 233.05,314.8C222.35,314.8 213.75,309.2 207.25,298C200.65,286.8 197.35,272.9 197.35,256.2C197.35,235.6 201.95,219 211.15,206.4C220.35,193.8 231.75,187.4 245.35,187.4C257.15,187.4 267.65,192.1 276.85,201.6C286.05,211.1 290.65,223.7 290.65,239.5C290.55,259.2 284.85,276.6 273.55,291.9Z" style="fill-rule:nonzero;"/>
        </g>
    </g>
</svg>
