<?xml version="1.0" encoding="UTF-8" standalone="no"?>
<!DOCTYPE svg PUBLIC "-//W3C//DTD SVG 1.1//EN" "http://www.w3.org/Graphics/SVG/1.1/DTD/svg11.dtd">
<svg width="100%" height="100%" viewBox="0 0 200 200" version="1.1" xmlns="http://www.w3.org/2000/svg" xmlns:xlink="http://www.w3.org/1999/xlink" xml:space="preserve" xmlns:serif="http://www.serif.com/" style="fill-rule:evenodd;clip-rule:evenodd;stroke-linejoin:round;stroke-miterlimit:2;">
    <rect id="Tavola-da-disegno1" serif:id="Tavola da disegno1" x="0" y="0" width="200" height="200" style="fill:none;"/>
    <clipPath id="_clip1">
        <rect id="Tavola-da-disegno11" serif:id="Tavola da disegno1" x="0" y="0" width="200" height="200"/>
    </clipPath>
    <g clip-path="url(#_clip1)">
        <g transform="matrix(1.65034,0,0,1.65034,-79.8486,-138.208)">
            <circle cx="108.976" cy="144.339" r="60.593" style="fill:white;"/>
        </g>
        <g transform="matrix(1.27088,0,0,1.27088,-21.4338,-27.0879)">
            <clipPath id="_clip2">
                <circle cx="95.551" cy="100" r="71.711"/>
            </clipPath>
            <g clip-path="url(#_clip2)">
                <g transform="matrix(0.134513,0,0,0.134513,-83.7003,-146.628)">
                    <rect x="622.249" y="1090.07" width="1486.85" height="1486.85" style="fill:rgb(31,48,57);"/>
                </g>
                <g transform="matrix(0.0950472,0,0,0.0950472,-22.052,-12.4175)">
                    <clipPath id="_clip3">
                        <path d="M999.757,1202.31L977.1,1217.84C977.1,1217.84 945.471,1150.2 944.783,1120.26L883.245,1141.76C883.245,1141.76 840.096,1009.29 875.665,942.536C875.665,942.536 848.502,937.57 865.19,878.146C881.877,818.723 943.145,679.658 1037.97,656.869C1037.97,656.869 1120.6,587.245 1170.11,587.245C1219.63,587.245 1281.78,596.112 1312.22,607.382C1342.67,618.651 1534.66,735.445 1477.18,812.691C1477.18,812.691 1512.22,820.36 1542.59,909.184C1572.97,998.008 1524.87,1063.27 1524.87,1063.27L1521.53,1171.44L1494.09,1185.84L1494.11,1081.53C1493.3,1085.54 1480.91,1086.83 1477.43,1066.61C1468.46,1014.51 1425.25,866.554 1426.82,831.923C1426.82,831.923 1342.08,730.012 1199.73,766.743C1036.62,808.828 1014.04,820.388 1009.95,846.202C1005.85,872.015 1004.74,906.082 999.569,940.955C994.402,975.827 980.234,1031.74 985.063,1074.43C989.892,1117.12 999.757,1202.31 999.757,1202.31Z"/>
                    </clipPath>
                    <g clip-path="url(#_clip3)">
                        <path d="M1448.96,958.073L1469.98,1162.78L1502.89,1246.95L1637.33,1156.63C1637.33,1156.63 1617.29,1066.78 1600.36,1043.54C1583.44,1020.29 1475,957.945 1448.96,958.073Z" style="fill:rgb(63,171,196);"/>
                        <path d="M1412.15,923.558C1412.15,923.558 1541.61,830.099 1609.97,929.154C1678.34,1028.21 1597,1043.54 1597,1043.54C1597,1043.54 1463.58,950.166 1432.53,963.229C1401.47,976.292 1412.15,923.558 1412.15,923.558Z" style="fill:rgb(54,157,178);"/>
                        <path d="M1225.71,782.023L1422.36,851.256C1422.36,851.256 1549.6,799.887 1506.1,672.995C1462.6,546.103 1224.82,528.796 1224.82,528.796L1225.71,782.023Z" style="fill:rgb(35,128,139);"/>
                        <path d="M1399.37,859.95C1399.37,859.95 1505.79,810.062 1524.22,750.576C1542.65,691.09 1587.07,909.005 1587.07,909.005C1587.07,909.005 1536.37,869.2 1424.96,912.363C1313.55,955.526 1399.37,859.95 1399.37,859.95Z" style="fill:rgb(45,143,159);"/>
                        <path d="M1182.62,782.023L1240.16,782.023C1240.16,782.023 1289.04,560.228 1182.62,535.224C1076.2,510.221 1058.49,566.226 1058.49,566.226L1083.68,613.136L1182.62,782.023Z" style="fill:rgb(26,115,121);"/>
                        <path d="M1127.62,782.023L1182.6,781.596C1182.6,781.596 1186.13,587.247 1083.68,590.918C981.241,594.59 973.124,627.063 973.124,627.063L1041.21,761.177L1127.62,782.023Z" style="fill:rgb(28,102,106);"/>
                        <path d="M852.5,950.894C852.5,950.894 942.482,858.133 1041.21,816.002C1139.93,773.872 1136.49,790.327 1136.49,790.327C1136.49,790.327 1183.07,644.714 1006.74,650.733C830.414,656.751 804.188,822.992 804.188,822.992L852.5,950.894Z" style="fill:rgb(32,90,92);"/>
                        <path d="M838.324,1121.57C838.324,1121.57 933.316,956.416 996.808,940.032C1060.3,923.647 1037.05,977.514 1037.05,977.514L1018.97,1236.55L882.837,1204.6L838.324,1121.57Z" style="fill:rgb(38,67,66);"/>
                        <g transform="matrix(1,0,0,1,0.735114,12.6711)">
                            <path d="M1010,819.252C1010,819.252 870.479,867.649 832.775,967.895C795.07,1068.14 840.824,1100.85 840.824,1100.85C840.824,1100.85 924.14,956.326 1037.62,905.991C1151.11,855.657 1010,819.252 1010,819.252Z" style="fill:rgb(35,79,80);"/>
                        </g>
                    </g>
                </g>
                <g transform="matrix(0.0950472,0,0,0.0950472,-22.052,-12.4175)">
                    <path d="M1474.23,1581.85C1476.48,1606.28 1477.79,1633.07 1475.67,1653.01C1470.59,1700.78 1352.07,1787.72 1267.36,1776.01C1182.64,1764.29 1146.29,1675.69 1121.56,1648.11C1096.84,1620.53 1045.47,1580.68 1045.47,1580.68C1053.03,1520.48 1036.53,1433.13 1033.49,1399.7C1030.46,1366.28 1001.07,1283.16 1001.07,1283.16C995.489,1290.06 958.422,1312.05 939.45,1307.13C920.478,1302.22 915.02,1255.38 907.821,1224.25C900.622,1193.12 876.647,1148.01 883.283,1132.13C889.918,1116.25 912.8,1110.26 934.573,1116.26C956.346,1122.26 980.087,1209.66 980.087,1209.66L996.318,1196.66C996.318,1196.66 979.315,1076.93 980.156,1033.56C980.996,990.188 1005.25,971.041 1008.49,921.051C1011.72,871.061 1015.51,833.752 1015.51,833.752C1015.51,833.752 1070.56,789.441 1202.42,761.04C1323.25,735.015 1414.07,795.283 1427.51,804.448C1418.82,801.732 1369.93,787.182 1333.33,788.611C1293.01,790.185 1277.32,806.085 1277.32,820.396C1277.32,834.708 1328.22,847.434 1342.1,853.344C1355.99,859.253 1352.11,871.833 1348.68,877.762C1345.25,883.691 1305.78,894.283 1323.35,913.085C1340.91,931.887 1438.04,966.649 1452.36,976.106C1452.36,976.106 1465.4,1039 1458.82,1045.96C1452.24,1052.92 1461.99,1072.24 1460.52,1081.53C1459.05,1090.82 1420.85,1092.99 1415.4,1104.48C1409.95,1115.97 1389.31,1133.88 1405.82,1142.4C1422.33,1150.93 1464.75,1144.99 1472.56,1174.14C1480.38,1203.28 1472.44,1230.11 1467.17,1254.53C1461.9,1278.94 1441.53,1338.03 1441.53,1338.03C1441.53,1338.03 1484.66,1300.47 1489.11,1286.87C1493.48,1273.51 1495.42,1209.91 1495.97,1183.72L1520.93,1170.4C1520.93,1170.4 1520.62,1075.88 1523.31,1064.88C1526,1053.87 1554.25,1052.82 1560.13,1068C1566.01,1083.19 1565.09,1109.79 1558.29,1126.82C1556.61,1131.01 1554.98,1137.1 1553.48,1143.91C1545.68,1141.7 1538.77,1144.72 1538.77,1144.72C1538.77,1144.72 1534.03,1183 1520.9,1192.52C1507.77,1202.05 1516.42,1212.5 1514.84,1228.53C1513.72,1239.78 1528.55,1246.87 1537.51,1250.07C1536,1254.96 1534.2,1259.09 1532.07,1261.86C1520.54,1276.83 1494.47,1274.69 1494.47,1274.69C1495.06,1313.96 1467.93,1369.17 1466.02,1373L1465.78,1372.75L1428.46,1439.27C1428.46,1439.27 1425.17,1493.32 1414.78,1521.51C1404.39,1549.71 1370.97,1547.25 1392,1591.56C1413.04,1635.87 1410.87,1699.88 1410.87,1699.88C1410.87,1699.88 1446.85,1642.18 1474.23,1581.85Z" style="fill:rgb(236,203,198);"/>
                </g>
                <g transform="matrix(0.0950472,0,0,0.0950472,-22.052,-12.4175)">
                    <path d="M1340.36,1414.56L1424.9,1353.21C1424.9,1353.21 1431.67,1383.55 1426.55,1398.61C1421.43,1413.67 1389.71,1441.26 1361.56,1432.98C1333.41,1424.7 1340.36,1414.56 1340.36,1414.56Z" style="fill:rgb(235,173,130);"/>
                    <path d="M1466.02,1373L1465.92,1373.21L1466.16,1518.18C1466.16,1518.18 1471.12,1547.73 1474.23,1581.85C1446.85,1642.18 1410.87,1699.88 1410.87,1699.88C1410.87,1699.88 1413.04,1635.87 1392,1591.56C1370.97,1547.25 1404.39,1549.71 1414.78,1521.51C1425.17,1493.32 1428.46,1439.27 1428.46,1439.27L1465.78,1372.75L1466.02,1373Z" style="fill:rgb(235,173,130);"/>
                    <path d="M1537.51,1250.07C1528.55,1246.87 1513.72,1239.78 1514.84,1228.53C1516.42,1212.5 1507.77,1202.05 1520.9,1192.52C1534.03,1183 1538.77,1144.72 1538.77,1144.72C1538.77,1144.72 1545.68,1141.7 1553.48,1143.91C1548.84,1164.79 1545.36,1192.39 1545.36,1192.39C1545.36,1192.39 1544.19,1228.57 1537.51,1250.07Z" style="fill:rgb(235,173,130);"/>
                    <path d="M1495.97,1183.72C1495.42,1209.91 1493.48,1273.51 1489.11,1286.87C1484.66,1300.47 1441.53,1338.03 1441.53,1338.03C1441.53,1338.03 1461.9,1278.94 1467.17,1254.53C1472.44,1230.11 1480.38,1203.28 1472.56,1174.14C1464.75,1144.99 1422.33,1150.93 1405.82,1142.4C1389.31,1133.88 1408.14,1091.75 1420.73,1089.93C1442.96,1086.72 1459.39,1056.04 1452.74,1042.55C1448.5,1033.96 1452.36,976.106 1452.36,976.106C1438.04,966.649 1340.91,931.887 1323.35,913.085C1305.78,894.283 1345.25,883.691 1348.68,877.762C1352.11,871.833 1355.99,859.253 1342.1,853.344C1328.22,847.434 1277.32,834.708 1277.32,820.396C1277.32,806.085 1293.01,790.185 1333.33,788.611C1369.93,787.182 1418.82,801.732 1427.51,804.448L1429.27,805.635C1427.44,825.381 1440.13,891.746 1456.55,923.721C1472.97,955.696 1475.42,1065.66 1475.42,1065.66C1475.42,1065.66 1488.65,1066.78 1494.79,1079.77C1500.93,1092.75 1495.46,1183.99 1495.46,1183.99L1495.97,1183.72Z" style="fill:rgb(235,173,130);"/>
                    <path d="M1315,1131.29C1293.3,1121.61 1277.93,1156.05 1314.85,1169.07C1351.77,1182.1 1345.79,1145.01 1315,1131.29Z" style="fill:rgb(235,173,130);"/>
                </g>
                <g transform="matrix(0.0950472,0,0,0.0950472,-22.052,-12.4175)">
                    <path d="M979.3,1032.59C977.147,992.5 998.741,915.642 998.143,896.44C997.545,877.239 1000.34,832.72 1022.23,820.509C1044.11,808.299 1123.56,779.169 1138.19,779.16C1152.82,779.151 1133.56,828.285 1103.64,861.314C1073.71,894.344 1058.63,914.391 1051.56,945.207C1044.49,976.022 981.158,1067.19 979.3,1032.59Z" style="fill:rgb(196,69,54);"/>
                    <path d="M1209.85,1046.82C1209.85,1046.82 1223.63,1090.87 1209.85,1129.45C1196.06,1168.02 1168.3,1183.96 1189.96,1200.43C1211.62,1216.9 1256.75,1216.66 1256.75,1216.66C1256.75,1216.66 1270.68,1205.1 1252.69,1179.5C1234.71,1153.89 1226.44,1107.88 1224.05,1089.21C1221.66,1070.54 1209.85,1046.82 1209.85,1046.82Z" style="fill:rgb(196,69,54);"/>
                    <path d="M1038.32,1046.82C1038.32,1046.82 1136.73,976.249 1198.57,1020.9L1209.85,986.37C1209.85,986.37 1051.65,940.854 1038.32,1046.82Z" style="fill:rgb(196,69,54);"/>
                    <path d="M1300.91,976.651L1317.5,1011.74C1317.5,1011.74 1393.25,967.481 1457.99,994.777C1457.99,994.777 1396.73,920.4 1300.91,976.651Z" style="fill:rgb(196,69,54);"/>
                    <path d="M1134.73,1216.66C1134.73,1216.66 1064.77,1219.23 1134.73,1368.73C1134.73,1368.73 1122.23,1258.25 1134.73,1216.66Z" style="fill:rgb(196,69,54);"/>
                    <path d="M985.692,1210.99C985.692,1210.99 1020.3,1318.35 1040.74,1362.3C1061.48,1406.87 1143.82,1463.68 1179.37,1475.53C1214.92,1487.38 1307.15,1494.47 1349.72,1481.92C1349.72,1481.92 1289.49,1524.62 1202.7,1512.73C1115.9,1500.85 1036.75,1406.49 1036.75,1406.49L1003.43,1301.84C1003.43,1301.84 966.685,1323.15 939.782,1309.7C923.875,1301.74 917.347,1268.83 917.347,1268.83C917.347,1268.83 954.172,1283.35 967.706,1277.87C981.241,1272.39 961.052,1208.28 969.219,1194.1C977.385,1179.92 985.692,1210.99 985.692,1210.99Z" style="fill:rgb(196,69,54);"/>
                    <g transform="matrix(0.68546,0,0,0.68546,391.957,415.335)">
                        <path d="M1158.48,1301.84C1158.48,1301.84 1201,1367.36 1288.99,1351.28C1376.99,1335.19 1406.48,1270.98 1406.48,1270.98C1406.48,1270.98 1318.23,1252 1285.17,1269.12C1285.17,1269.12 1201.22,1257.32 1158.48,1301.84Z" style="fill:rgb(196,69,54);"/>
                    </g>
                    <path d="M1355.83,1286.99C1353.5,1291.65 1332.24,1331.21 1275.51,1341.58C1216.24,1352.42 1187.07,1309.24 1186.07,1307.74C1197.91,1312.28 1221.26,1320.71 1266.24,1315.57C1320.47,1309.38 1342.18,1296.11 1355.83,1286.99Z" style="fill:rgb(168,52,39);"/>
                </g>
                <g transform="matrix(0.0763722,0,0,0.0950472,-0.993322,-11.5749)">
                    <path d="M1065.52,1068.45C1065.52,1068.45 1136.53,993.19 1183.07,1061.24C1183.07,1061.24 1147.4,1104.2 1065.52,1068.45Z" style="fill:rgb(241,250,238);"/>
                </g>
                <g transform="matrix(-0.0727369,0,0,0.0950472,192.078,-12.107)">
                    <path d="M1067.92,1054.24C1067.92,1054.24 1136.53,993.19 1183.07,1061.24C1183.07,1061.24 1132.68,1110.42 1067.92,1054.24Z" style="fill:rgb(241,250,238);"/>
                </g>
                <g transform="matrix(0.0950472,0,0,0.0950472,-22.052,-12.4175)">
                    <path d="M1299.7,1010.19C1333.03,977.565 1432.04,980.751 1517.03,994.108L1517.04,995.192L1517.21,995.01L1524.27,1042.78C1524.27,1042.78 1525.43,1054.2 1517.21,1044.06C1511.34,1036.82 1507.48,1021.78 1505.75,1013.76C1501.32,1016.96 1496.82,1021.96 1494.75,1029.64C1489.97,1047.36 1484.29,1106.6 1467.91,1121.5C1451.53,1136.4 1424,1144.87 1400.4,1145.7C1376.79,1146.53 1351.07,1144.14 1333.9,1132.83C1317.9,1122.28 1273.32,1072.61 1288.55,1028.5C1269.97,1020.57 1242.44,1025.16 1229.79,1027.97C1248.77,1056.35 1212.75,1127.2 1205.01,1137.34C1196.58,1148.37 1171.04,1158.74 1142.77,1162.65C1114.5,1166.56 1090.27,1163.81 1063.72,1151.52C1037.17,1139.22 1023.31,1073.97 1018.82,1060.88C1015.88,1052.3 1005.49,1049.35 998.687,1048.34C997.584,1049.28 996.122,1050.14 994.223,1050.86C978.336,1056.93 938.982,1113.56 938.982,1113.56C928.631,1074.27 979.645,1039.47 992.53,1031.4L992.53,1029.64C1000.28,1026.5 1008.12,1023.57 1016.05,1020.89C1038.92,1013.16 1062.51,1007.45 1086.43,1004.18C1096.9,1002.74 1107.43,1001.77 1117.98,1001.33C1127.25,1000.93 1136.54,1000.94 1145.8,1001.41C1153.15,1001.78 1160.49,1002.44 1167.78,1003.45C1174.17,1004.33 1180.52,1005.47 1186.8,1006.94C1191.67,1008.09 1196.5,1009.43 1201.25,1011.02C1205.98,1012.62 1210.63,1014.47 1215.1,1016.68L1215.18,1016.72C1243.8,1004.55 1290.48,1009.13 1299.7,1010.19ZM1118.09,1014.5C1098.91,1015.24 1051.68,1021.16 1042.24,1043.44C1032.8,1065.73 1046.5,1097.51 1051.27,1109.6C1056.05,1121.69 1062.65,1133.97 1076.08,1140.88C1089.5,1147.79 1112.27,1150.24 1132.3,1147.85C1152.33,1145.47 1174.66,1142.32 1187.97,1130.14C1201.28,1117.95 1209.9,1087.44 1210.58,1078.02C1211.26,1068.6 1211.45,1039.59 1205.22,1032.6C1198.99,1025.61 1165.85,1012.64 1118.09,1014.5ZM1394.34,997.077C1413.51,996.158 1461.08,997.96 1472.41,1019.35C1483.74,1040.73 1472.85,1073.58 1469.14,1086.04C1465.43,1098.5 1459.91,1111.3 1447.13,1119.35C1434.36,1127.39 1411.89,1131.8 1391.73,1131.16C1371.57,1130.52 1349.04,1129.32 1334.73,1118.33C1320.42,1107.34 1309.19,1077.69 1307.69,1068.36C1306.2,1059.04 1303.5,1030.15 1309.1,1022.65C1314.7,1015.15 1346.6,999.364 1394.34,997.077Z" style="fill:rgb(57,74,85);"/>
                </g>
                <g transform="matrix(0.0950472,0,0,0.0950472,-22.052,-12.4175)">
                    <g transform="matrix(0.908576,0,0,0.908576,101.368,97.1382)">
                        <path d="M1119.02,1009.67C1097.92,1010.49 1045.93,1017 1035.55,1041.52C1025.15,1066.05 1040.23,1101.04 1045.49,1114.34C1050.74,1127.65 1058.02,1141.16 1072.79,1148.77C1087.56,1156.37 1112.62,1159.07 1134.66,1156.44C1156.71,1153.82 1181.3,1150.35 1195.94,1136.94C1210.59,1123.53 1220.08,1089.95 1220.83,1079.58C1221.58,1069.21 1221.78,1037.28 1214.93,1029.59C1208.07,1021.9 1171.59,1007.63 1119.02,1009.67Z" style="fill:rgb(29,53,87);fill-opacity:0.4;"/>
                    </g>
                    <g transform="matrix(-0.905165,0.0786576,0.0786576,0.905165,2327.83,-4.85899)">
                        <path d="M1119.02,1009.67C1097.92,1010.49 1045.93,1017 1035.55,1041.52C1025.15,1066.05 1040.23,1101.04 1045.49,1114.34C1050.74,1127.65 1058.02,1141.16 1072.79,1148.77C1087.56,1156.37 1112.62,1159.07 1134.66,1156.44C1156.71,1153.82 1181.3,1150.35 1195.94,1136.94C1210.59,1123.53 1220.08,1089.95 1220.83,1079.58C1221.58,1069.21 1221.78,1037.28 1214.93,1029.59C1208.07,1021.9 1171.59,1007.63 1119.02,1009.67Z" style="fill:rgb(29,53,87);fill-opacity:0.4;"/>
                    </g>
                </g>
            </g>
        </g>
    </g>
</svg>
