<?xml version="1.0" encoding="UTF-8" standalone="no"?>
<!DOCTYPE svg PUBLIC "-//W3C//DTD SVG 1.1//EN" "http://www.w3.org/Graphics/SVG/1.1/DTD/svg11.dtd">
<svg width="100%" height="100%" viewBox="0 0 200 200" version="1.1" xmlns="http://www.w3.org/2000/svg" xmlns:xlink="http://www.w3.org/1999/xlink" xml:space="preserve" xmlns:serif="http://www.serif.com/" style="fill-rule:evenodd;clip-rule:evenodd;">
    <rect id="Tavola-da-disegno1" serif:id="Tavola da disegno1" x="0" y="0" width="200" height="200" style="fill:none;"/>
    <g>
        <g transform="matrix(12.3837,0,0,12.3837,-26.7587,-23.6324)">
            <circle cx="10.236" cy="9.983" r="8.075" style="fill:white;"/>
        </g>
        <g transform="matrix(6.07545,0,0,6.07545,30.1323,37.8377)">
            <g transform="matrix(1,0,0,1,11.5,10.2317)">
                <circle cx="0" cy="0" r="2.05" style="fill:rgb(97,218,251);"/>
            </g>
            <g transform="matrix(1,0,0,1,11.5,10.2317)">
                <ellipse cx="0" cy="0" rx="11" ry="4.2" style="fill:none;stroke:rgb(97,218,251);stroke-width:1px;"/>
                <g transform="matrix(0.5,0.866025,-0.866025,0.5,0,0)">
                    <ellipse cx="0" cy="0" rx="11" ry="4.2" style="fill:none;stroke:rgb(97,218,251);stroke-width:1px;"/>
                </g>
                <g transform="matrix(-0.5,0.866025,-0.866025,-0.5,0,0)">
                    <ellipse cx="0" cy="0" rx="11" ry="4.2" style="fill:none;stroke:rgb(97,218,251);stroke-width:1px;"/>
                </g>
            </g>
        </g>
    </g>
</svg>
