<?xml version="1.0" encoding="UTF-8" standalone="no"?>
<!DOCTYPE svg PUBLIC "-//W3C//DTD SVG 1.1//EN" "http://www.w3.org/Graphics/SVG/1.1/DTD/svg11.dtd">
<svg width="100%" height="100%" viewBox="0 0 200 200" version="1.1" xmlns="http://www.w3.org/2000/svg" xmlns:xlink="http://www.w3.org/1999/xlink" xml:space="preserve" xmlns:serif="http://www.serif.com/" style="fill-rule:evenodd;clip-rule:evenodd;stroke-linejoin:round;stroke-miterlimit:2;">
    <rect id="Tavola-da-disegno1" serif:id="Tavola da disegno1" x="0" y="0" width="200" height="200" style="fill:none;"/>
    <g id="Tavola-da-disegno11" serif:id="Tavola da disegno1">
        <g transform="matrix(0.390625,0,0,0.390625,0,0)">
            <path d="M256,512C397.419,512 512,397.419 512,256C512,114.581 397.419,0 256,0C114.581,0 0,114.581 0,256C0,397.419 114.581,512 256,512ZM117.141,250.453L363.968,155.285C375.424,151.147 385.429,158.08 381.717,175.403L381.739,175.381L339.712,373.376C336.597,387.413 328.256,390.827 316.587,384.213L252.587,337.045L221.717,366.784C218.304,370.197 215.424,373.077 208.811,373.077L213.355,307.947L331.968,200.789C337.131,196.245 330.816,193.685 324.011,198.208L177.429,290.496L114.24,270.784C100.523,266.432 100.224,257.067 117.141,250.453Z" style="fill-rule:nonzero;"/>
        </g>
    </g>
</svg>
