<?xml version="1.0" encoding="UTF-8" standalone="no"?>
<!DOCTYPE svg PUBLIC "-//W3C//DTD SVG 1.1//EN" "http://www.w3.org/Graphics/SVG/1.1/DTD/svg11.dtd">
<svg width="100%" height="100%" viewBox="0 0 200 200" version="1.1" xmlns="http://www.w3.org/2000/svg" xmlns:xlink="http://www.w3.org/1999/xlink" xml:space="preserve" xmlns:serif="http://www.serif.com/" style="fill-rule:evenodd;clip-rule:evenodd;stroke-linejoin:round;stroke-miterlimit:2;">
    <rect id="Tavola-da-disegno1" serif:id="Tavola da disegno1" x="0" y="0" width="200" height="200" style="fill:none;"/>
    <clipPath id="_clip1">
        <rect id="Tavola-da-disegno11" serif:id="Tavola da disegno1" x="0" y="0" width="200" height="200"/>
    </clipPath>
    <g clip-path="url(#_clip1)">
        <g transform="matrix(0.418527,0,0,0.418527,0,0)">
            <path d="M238.933,0C106.974,0 0,106.974 0,238.933C0,370.892 106.974,477.866 238.933,477.866C370.892,477.866 477.866,370.892 477.866,238.933C477.726,107.033 370.834,0.141 238.933,0ZM339.557,246.546C337.903,249.864 335.214,252.554 331.895,254.208L331.895,254.293L195.362,322.56C186.93,326.773 176.68,323.354 172.466,314.922C171.268,312.525 170.651,309.879 170.666,307.2L170.666,170.667C170.662,161.241 178.299,153.597 187.725,153.592C190.376,153.591 192.991,154.207 195.362,155.392L331.895,223.659C340.331,227.863 343.762,238.11 339.557,246.546Z" style="fill:white;fill-rule:nonzero;"/>
        </g>
    </g>
</svg>
