<?xml version="1.0" encoding="UTF-8" standalone="no"?>
<!DOCTYPE svg PUBLIC "-//W3C//DTD SVG 1.1//EN" "http://www.w3.org/Graphics/SVG/1.1/DTD/svg11.dtd">
<svg width="100%" height="100%" viewBox="0 0 200 200" version="1.1" xmlns="http://www.w3.org/2000/svg" xmlns:xlink="http://www.w3.org/1999/xlink" xml:space="preserve" xmlns:serif="http://www.serif.com/" style="fill-rule:evenodd;clip-rule:evenodd;stroke-linejoin:round;stroke-miterlimit:2;">
    <rect id="Tavola-da-disegno1" serif:id="Tavola da disegno1" x="0" y="0" width="200" height="200" style="fill:none;"/>
    <g id="Tavola-da-disegno11" serif:id="Tavola da disegno1">
        <g transform="matrix(0.396429,0,0,0.396429,0,0.120714)">
            <path d="M254.8,119.4C183.2,119.4 125.2,177 125.2,248.2C125.2,276.2 134.4,302.6 150,323.8L133.6,371.8L183.6,355.8C204,369.4 228.8,377 255.2,377C326.8,377 385.2,319.4 385.2,248.2C384.8,177 326.4,119.4 254.8,119.4ZM330.8,301.4C327.6,310.2 312,318.6 305.2,319.4C298.4,320.2 298.4,325 259.6,310.2C221.2,295 196.8,256.2 194.8,253.4C192.8,251 179.2,233 179.2,214.6C179.2,196.2 188.8,187 192.4,183.4C196,179.8 200,178.6 202.4,178.6C204.8,178.6 207.6,179 209.6,179C212,179 214.8,177.8 218,185.4C221.2,193 228.8,211.4 229.6,213.4C230.4,215.4 231.2,217.4 230,219.8C228.8,222.2 228,223.8 226.4,226.2C224.4,228.2 222.4,231 220.8,232.6C218.8,234.6 216.8,236.6 219.2,240.2C221.6,243.8 229.2,256.2 240.4,266.2C254.8,279 267.2,283 270.8,285C274.4,287 276.8,286.6 278.8,284.2C281.2,281.8 288.4,273.4 290.8,269.4C293.2,265.8 296,266.2 299.2,267.4C302.8,268.6 321.2,277.8 325.2,279.8C328.8,281.8 331.6,282.6 332.4,284.2C333.6,285 333.6,292.6 330.8,301.4Z" style="fill-rule:nonzero;"/>
        </g>
        <g transform="matrix(0.396429,0,0,0.396429,0,0.120714)">
            <path d="M377.6,0.2L126.4,0.2C56.8,0.2 0,57 0,126.6L0,378.2C0,447.4 56.8,504.2 126.4,504.2L378,504.2C447.6,504.2 504.4,447.4 504.4,377.8L504.4,126.6C504,57 447.2,0.2 377.6,0.2ZM254.8,401.4C227.6,401.4 202.4,394.6 180,382.2L94.4,409.4L122.4,327.4C108.4,304.2 100.4,277 100.4,248.2C100.4,163.4 169.6,95 254.8,95C340,95 409.2,163.4 409.2,248.2C409.2,333 340,401.4 254.8,401.4Z" style="fill-rule:nonzero;"/>
        </g>
    </g>
</svg>
